<?xml version="1.0" encoding="UTF-8" standalone="no"?>
<!-- Created with Inkscape (http://www.inkscape.org/) -->

<svg
   xmlns:dc="http://purl.org/dc/elements/1.1/"
   xmlns:cc="http://creativecommons.org/ns#"
   xmlns:rdf="http://www.w3.org/1999/02/22-rdf-syntax-ns#"
   xmlns:svg="http://www.w3.org/2000/svg"
   xmlns="http://www.w3.org/2000/svg"
   xmlns:sodipodi="http://sodipodi.sourceforge.net/DTD/sodipodi-0.dtd"
   xmlns:inkscape="http://www.inkscape.org/namespaces/inkscape"
   width="210mm"
   height="297mm"
   viewBox="0 0 744.09448819 1052.3622047"
   id="svg4182"
   version="1.1"
   inkscape:version="0.91 r13725"
   sodipodi:docname="drawing.svg">
  <defs
     id="defs4184" />
  <sodipodi:namedview
     id="base"
     pagecolor="#ffffff"
     bordercolor="#666666"
     borderopacity="0"
     inkscape:pageopacity="0"
     inkscape:pageshadow="2"
     inkscape:zoom="0.175"
     inkscape:cx="1418.0641"
     inkscape:cy="1034.3863"
     inkscape:document-units="px"
     inkscape:current-layer="layer1"
     showgrid="false"
     inkscape:window-width="1280"
     inkscape:window-height="778"
     inkscape:window-x="-8"
     inkscape:window-y="-8"
     inkscape:window-maximized="1" />
  <metadata
     id="metadata4187">
    <rdf:RDF>
      <cc:Work
         rdf:about="">
        <dc:format>image/svg+xml</dc:format>
        <dc:type
           rdf:resource="http://purl.org/dc/dcmitype/StillImage" />
        <dc:title></dc:title>
      </cc:Work>
    </rdf:RDF>
  </metadata>
  <g
     inkscape:groupmode="layer"
     id="layer1"
     inkscape:label="Logo">
    <path
       inkscape:connector-curvature="0"
       d="m 144.89371,620.0266 c 8.7625,-6.8875 19.35,-12.4125 30.7375,-12.325 5.7625,-0.05 11.225,2.1875 15.975,5.3125 2.225,-1.9625 4.475,-3.9125 6.8875,-5.6375 3.475,3.1625 -2.625,6.15 -4.5625,8.5 2.4375,7.8625 -1.9,15.675 -6.6125,21.7 -8.45,10.4375 -23.2375,17.4375 -36.4125,12.0125 -7.0125,2.725 -14.55,6.0375 -22.2125,4.2375 -3.1875,-0.4125 -5.3875,-5.1875 -2.2,-7.1 7.025,-4.2875 15.9125,-4.0375 23.375,-1 12.3625,-10.925 26.2875,-19.85 39.2,-30.0625 -6.9,-5.55 -16.2,-5.325 -24.4125,-3.525 2.3,1.275 3.6,3.75 2.2375,6.25 -3.4875,7.75 -11.7875,11.8875 -19.4625,14.4375 -3.1875,1.375 -7.625,0.2875 -8.6625,-3.35 0.0375,-4.0875 3.225,-7.025 6.125,-9.45 z"
       id="path6"
       style="display:inline;fill:#ffffff" />
    <path
       d="m 31.21871,616.6016 c 4.075,-2.775 7.4,-7.525 12.712495,-7.7375 -0.3375,1.95 -0.7375,4.0375 -2.2125,5.5 -5.287495,6.225 -12.687495,10 -19.087495,14.8875 -5.9375,4.175 -11.6125,8.6875 -17.0374996,13.4875 3.9375,2.6375 7.8624996,5.6 12.5124996,6.8625 2.95,-0.0875 5.5625,-1.7125 8.3,-2.6625 3.525,-3.8125 7.2625,-8.9875 12.874995,-9.2125 -2.424995,4.0375 -6.687495,6.4 -9.574995,10.0625 9.0375,2.3 15.937495,-5.2875 22.762495,-9.8 2,4.375 -2.875,6.45 -5.5875,8.75 1.0375,2.675 4.625,1.225 6.6875,0.725 6.35,-1.275 9.1875,-8.375 15.5125,-9.8125 -1.225,4.925 -6.725,6.7875 -9.2625,10.925 4.6125,0.6375 9.0625,-0.95 13.35,-2.425 1.3125,-2.05 2.875,-4.0375 5.2,-4.9875 4.7125,-2.15 9.612501,-4.8875 14.975001,-4.35 0.3,0.425 0.9,1.3 1.2,1.725 -1.975,4.65 -5.8875,8.05 -8.875,12.0375 1.4,3.925 -3.200001,5.025 -5.250001,7.3125 -5.6625,6.15 -11.075,12.8 -18.5125,16.9375 -5.5,2.925 -11.55,6.6125 -18.0375,4.975 0.6125,-2.275 1.65,-4.45 3.55,-5.9125 8.3,-7.2875 18.2375,-12.3125 27.9875,-17.3125 2.675,-1.3375 4.475,-3.8125 6.4375,-5.9625 -2.3625,-0.5375 -4.6875,-1.2125 -6.925,-2.125 -4.975,1.5625 -10.1125,3.3375 -15.4,2.9375 -1.125,-0.7625 -2.2,-1.5875 -3.2125,-2.4875 -4.4,1.7125 -9.5375,2.525 -13.575,-0.525 -4.262495,2.15 -8.999995,2.7875 -13.737495,2.5 -0.4125,-0.275 -1.25,-0.8375 -1.6625,-1.125 -3.225,1.35 -6.65,3.4125 -10.275,2.425 -5.075,-1.5375 -9.5499996,-4.5125 -14.0624996,-7.2 -5.675001,2.0375 -10.763361,8.31104 -17.2879314,5.65086 -1.095181,-0.78042 -0.02458,-2.63836 1.22543,-3.47586 3.9875004,-2.8125 9.0500004,-3.075 13.45000143,-4.95 3.31249997,-1.8875 6.19999997,-4.425 9.14999997,-6.825 -3.4625,0.975 -6.8875,2.0625 -10.42499997,2.7 -0.55000003,-0.5625 -1.63750103,-1.7 -2.18750103,-2.2625 5.000001,-2.5625 10.937501,-2.2875 16.0000006,-4.775 7.6375,-2.6375 11.9,-9.9875 18.3,-14.475 z"
       id="path8"
       style="display:inline;fill:#ffffff"
       inkscape:connector-curvature="0"
       sodipodi:nodetypes="ccccccccccccccccccccccccccccccccccccccccc" />
    <path
       d="m 141.73121,629.3641 c 3.2,-8.9625 13,-12.8125 21.0125,-16.475 0.9625,0.5375 0.97697,0.58344 1.7288,1.56727 l 0.1337,0.25773 c -0.7,9.6875 -11.8125,13.6875 -19.85,15.9875 -2.81071,0.13422 -2.82113,0.12966 -3.025,-1.3375 z"
       id="path10"
       style="display:inline;fill:#ffffff"
       inkscape:connector-curvature="0"
       sodipodi:nodetypes="cccccc" />
    <path
       d="m 275.82376,641.39799 c -0.2112,3.32854 -4.99116,4.41058 -2.94475,6.76966 2.44324,2.8165 8.1522,-1.26605 11.4772,-2.90355 2.1125,-3.9375 4.775,-8.1375 9.225,-9.6625 0.7,1.625 1.1125,3.425 1.9625,4.975 2.525,-0.8 4.825,-3.2 7.6,-2.6 0.375,0.7 1.1375,2.1 1.5125,2.8 -4.45,2.7375 -11.7125,3.1 -12.85,9.2625 7.0875,-0.8875 15.0625,-2.3125 20.0125,-7.9875 5,-4.7625 10.4625,-9.125 16.675,-12.2 2.2125,-1.1125 5.7125,-2.8125 7.1625,-1.6125 0.75,3.875 -3.725,4.9375 -6.325,6.375 -6.6375,3.2375 -15.2375,5.9375 -17.9125,13.575 6.8,-0.4125 13.2125,-3.1 19.3,-5.9875 4.0875,-3.7875 8.6375,-8.1875 14.65,-7.975 3.3375,1.3125 1.375,5.2625 0.925,7.7 3.7875,0.2 7.5375,-0.4 11.3125,-0.45 -3.3875,3.9 -9.25,2.8375 -13.8125,2.375 -3.75,3.375 -7.6,8.225 -13.225,7.65 -2.75,-0.0375 -2.5625,-3.675 -2.175,-5.575 -5.2375,2.45 -10.7375,4.7125 -16.5875,4.9625 -2.05,0.5125 -3.5875,-0.7125 -4.925,-2.075 -4.8875,1.95 -10,4.25 -15.4,3.575 -1.8125,-0.45 -4.0375,-1.525 -3.2625,-3.775 1.2625,-2.175 3.075,-3.95 4.725,-5.825 l -1.7,-0.75 c -0.875,4.325 -5.7875,5.0875 -9.15,6.7125 -4.0125,1.25 -9.4875,3.375 -12.425,-0.9 -4.15,2.125 -9.1,4.975 -13.825,3 -2.575,-1.3 -1.0625,-4.2875 -0.7375,-6.4125 -7.9375,2.6 -16.075,4.5875 -24.3125,5.925 -2.8625,0.175 -6.325,1.4375 -8.7,-0.8125 -1.6875,-3.025 0.4125,-6.225 2.0875,-8.725 6.0875,-8.4875 14.275,-15.1625 22.55,-21.4125 5.4875,-3.75 12.075,-7.5875 18.975,-6.1375 6.3125,2.76875 -3.075,10.85 -7.5,14.0125 -2.4625,1.9 -6.3,3.55 -8.9875,1.1125 -1.375,-3.4125 2.0625,-5.15 4.5125,-6.425 0.4875,0.775 1.4625,2.3375 1.95,3.1125 2.5625,-1.775 8.675,-5.8375 4.8875,-8.9 -9.8625,2.975 -17.6875,10.1625 -25.0375,17.075 -4.15,4.2375 -9.0625,8.425 -10.4125,14.4875 7.35,0.15 14.4875,-1.9875 21.5875,-3.575 7.2,-1.6 14,-5.1 21.475,-5.1875 3.625,-0.2875 3.91712,-0.14413 6.92519,1.37411"
       id="path12"
       style="display:inline;fill:#ffffff"
       inkscape:connector-curvature="0"
       sodipodi:nodetypes="csccccccccccccccccccccccccccccccccccccccccccc" />
    <path
       inkscape:connector-curvature="0"
       d="m 152.89371,646.7266 c 11.775,-10.625 26.0875,-17.8375 38.0125,-28.2625 1.525,7.2125 -2.775,13.9 -7.3875,19.025 -7.45,8.4 -19.7,12.8625 -30.625,9.2375 z"
       id="path14"
       style="display:inline;fill:#ffffff" />
    <path
       d="m 109.12895,630.16661 c 2.01091,-1.09844 5.27726,0.88499 2.40226,2.98499 -2.925,1.6625 -4.41319,-1.88655 -2.40226,-2.98499 z"
       id="path18"
       style="display:inline;fill:#ffffff"
       inkscape:connector-curvature="0"
       sodipodi:nodetypes="zcz" />
    <path
       d="m 188.21871,643.4766 c 3.65,-4.1125 8.0962,-7.99162 13.375,-9.625 2.43465,-0.0477 1.35,3.3875 0.25,4.575 -3.675,3.725 -8.525,5.925 -12.6875,9.0125 5.7625,4 11.9375,-1.5625 17.825,-2.4125 -0.2375,2.5 -2.7125,3.1875 -4.6,4 -4.4,1.7125 -9.5,3.25 -14.0875,1.35 -2.9125,-1.275 -1.9375,-5.1125 -0.075,-6.9 z"
       id="path20"
       style="display:inline;fill:#ffffff"
       inkscape:connector-curvature="0"
       sodipodi:nodetypes="cccccccc" />
    <path
       inkscape:connector-curvature="0"
       d="m 93.118706,646.2266 c 3.225,-3.625 6.937504,-7.375 11.837504,-8.5 -2.175,4.4875 -6.762504,6.975 -9.687504,10.8875 5.975004,0.9375 11.325004,-2.475 17.150004,-2.9625 -0.7,1.65 -1.9,2.9875 -3.725,3.3375 -4.5875,1.525 -9.500004,3.0625 -14.387504,2.25 -1.5875,-1.2125 -3.075,-3.325 -1.1875,-5.0125 z"
       id="path22"
       style="display:inline;fill:#ffffff" />
    <path
       inkscape:connector-curvature="0"
       d="m 330.88121,649.3516 c 1.4,-4.8 5.1625,-8.8125 9.925,-10.3625 0.5,5.625 -5.5,8.6375 -9.925,10.3625 z"
       id="path24"
       style="display:inline;fill:#ffffff" />
    <path
       inkscape:connector-curvature="0"
       d="m 77.093705,646.1641 c 3.85,-2.7875 8.1125,-5.1625 12.875001,-5.9 -1.95,2.6625 -3.9875,5.5 -6.962501,7.0875 -2.0125,1.2375 -4.0375,-0.65 -5.9125,-1.1875 z"
       id="path26"
       style="display:inline;fill:#ffffff" />
    <path
       inkscape:connector-curvature="0"
       d="m 257.51871,649.0391 c 1.8125,-5.5875 8.6875,-6.6875 13.75,-7.1125 -2.8125,4.775 -8.4875,6.75 -13.75,7.1125 z"
       id="path28"
       style="display:inline;fill:#ffffff" />
    <path
       inkscape:connector-curvature="0"
       d="m 127.15621,650.3766 c 5.375,-4.2875 12.9125,-3.9375 19.1875,-2.1125 -6.0875,2.025 -12.8875,5.1875 -19.1875,2.1125 z"
       id="path30"
       style="display:inline;fill:#ffffff" />
    <path
       inkscape:connector-curvature="0"
       d="m 48.868705,677.2516 c 7.0875,-7.075 15.95,-12.2 24.85,-16.65 -6.625,7.5625 -15.1375,13.775 -24.85,16.65 z"
       id="path32"
       style="display:inline;fill:#ffffff" />
    <path
       d="m 70.293843,630.99807 c 2.010925,-1.09843 5.277262,0.88499 2.402262,2.98499 -2.925,1.6625 -4.413187,-1.88655 -2.402262,-2.98499 z"
       id="path18-8"
       style="display:inline;fill:#ffffff"
       inkscape:connector-curvature="0"
       sodipodi:nodetypes="zcz" />
    <path
       style="display:inline;fill:#ffffff;fill-rule:evenodd;stroke:#000000;stroke-width:0;stroke-linecap:butt;stroke-linejoin:miter;stroke-miterlimit:4;stroke-dasharray:none;stroke-opacity:1"
       d="m 39.69313,611.98167 -15.731155,13.5117 c 0,0 7.974813,-5.48152 12.012038,-8.14785 0.919482,-0.60726 2.133282,-0.89595 2.78072,-1.7876 0.724122,-0.99726 0.938397,-3.57625 0.938397,-3.57625 z"
       id="path3391"
       inkscape:connector-curvature="0"
       sodipodi:nodetypes="ccaac" />
    <path
       style="display:inline;fill:#ffffff;fill-rule:evenodd;stroke:#000000;stroke-width:0;stroke-linecap:butt;stroke-linejoin:miter;stroke-miterlimit:4;stroke-dasharray:none;stroke-opacity:1"
       d="m -4.0535616,645.30067 -3.8731465,1.39035 -2.1351979,0.64553 c 0,0 -0.01285,-0.18855 -1.688293,0.94347 -1.675445,1.13202 -0.352345,1.88433 0.397246,1.88692 0.749591,0.003 1.5656611,-0.41757 1.5656611,-0.41757 l 2.4564525,-1.32038 5.5117848,-3.02902 -1.191737,-0.44688 z"
       id="path3393"
       inkscape:connector-curvature="0"
       sodipodi:nodetypes="ccczzccccc" />
    <path
       style="display:inline;fill:#ffffff;fill-rule:evenodd;stroke:#000000;stroke-width:0;stroke-linecap:butt;stroke-linejoin:miter;stroke-miterlimit:4;stroke-dasharray:none;stroke-opacity:1"
       d="m 200.79666,636.85667 c 0.1737,0.38717 -0.49305,0.69814 -0.80353,0.98739 m 0,0 c -1.3345,1.24326 -4.47755,3.14501 -4.47755,3.14501 l -6.77668,4.1443 1.45637,-1.01761 c 0,0 4.46761,-4.49084 6.99484,-6.38141 0.65901,-0.493 1.29654,-1.16423 2.11137,-1.27995 0.51098,-0.0726 1.28183,-0.0732 1.49518,0.40227"
       id="path3395"
       inkscape:connector-curvature="0"
       sodipodi:nodetypes="ccccccaac" />
    <path
       style="display:inline;fill:#ffffff;fill-rule:evenodd;stroke:#000000;stroke-width:0;stroke-linecap:butt;stroke-linejoin:miter;stroke-miterlimit:4;stroke-dasharray:none;stroke-opacity:1"
       d="m 323.80216,634.73036 c 0,0 2.0889,-1.68229 3.22617,-2.38649 1.34993,-0.83589 2.75578,-1.60846 4.24263,-2.16551 0.39815,-0.14916 0.9376,-0.3748 1.23745,-0.30936 0.29985,0.0654 0.3899,0.22603 0.481,0.34574 0.0911,0.11975 0.0875,0.20513 0.0935,0.31717 0.0112,0.20008 -0.0602,0.41146 -0.17678,0.57451 -0.1165,0.16305 -0.30988,0.25825 -0.48613,0.35357 -2.70262,1.46157 -8.61787,3.27037 -8.61787,3.27037 z"
       id="path3399"
       inkscape:connector-curvature="0"
       sodipodi:nodetypes="csszzsssc" />
  </g>
</svg>
